<mxfile host="app.diagrams.net" agent="Mozilla/5.0 (Windows NT 10.0; Win64; x64) AppleWebKit/537.36 (KHTML, like Gecko) Chrome/132.0.0.0 Safari/537.36" version="26.0.10">
  <diagram name="Page-1" id="-LU4ioCF4r8ehQIlpQlr">
    <mxGraphModel grid="1" page="1" gridSize="10" guides="1" tooltips="1" connect="1" arrows="1" fold="1" pageScale="1" pageWidth="850" pageHeight="1100" math="0" shadow="0">
      <root>
        <mxCell id="0" />
        <mxCell id="1" parent="0" />
        <mxCell id="aM1qkCDXcj1m1-Q6C5af-1" value="Upload Image" style="whiteSpace=wrap;html=1;aspect=fixed;" vertex="1" parent="1">
          <mxGeometry x="120" y="130" width="100" height="100" as="geometry" />
        </mxCell>
        <mxCell id="aM1qkCDXcj1m1-Q6C5af-2" value="User" style="rounded=0;whiteSpace=wrap;html=1;" vertex="1" parent="1">
          <mxGeometry x="160" y="-300" width="190" height="90" as="geometry" />
        </mxCell>
        <mxCell id="aM1qkCDXcj1m1-Q6C5af-4" value="" style="endArrow=classic;html=1;rounded=0;entryX=0.5;entryY=0;entryDx=0;entryDy=0;exitX=0.5;exitY=1;exitDx=0;exitDy=0;" edge="1" parent="1" source="aM1qkCDXcj1m1-Q6C5af-17" target="aM1qkCDXcj1m1-Q6C5af-1">
          <mxGeometry width="50" height="50" relative="1" as="geometry">
            <mxPoint x="200" y="30" as="sourcePoint" />
            <mxPoint x="450" y="60" as="targetPoint" />
            <Array as="points" />
          </mxGeometry>
        </mxCell>
        <mxCell id="aM1qkCDXcj1m1-Q6C5af-5" value="API" style="whiteSpace=wrap;html=1;aspect=fixed;" vertex="1" parent="1">
          <mxGeometry x="130" y="310" width="80" height="80" as="geometry" />
        </mxCell>
        <mxCell id="aM1qkCDXcj1m1-Q6C5af-6" value="" style="endArrow=classic;html=1;rounded=0;exitX=0.5;exitY=1;exitDx=0;exitDy=0;" edge="1" parent="1" source="aM1qkCDXcj1m1-Q6C5af-1" target="aM1qkCDXcj1m1-Q6C5af-5">
          <mxGeometry width="50" height="50" relative="1" as="geometry">
            <mxPoint x="400" y="400" as="sourcePoint" />
            <mxPoint x="450" y="350" as="targetPoint" />
          </mxGeometry>
        </mxCell>
        <mxCell id="aM1qkCDXcj1m1-Q6C5af-7" value="Pet Details and Health Insights" style="whiteSpace=wrap;html=1;aspect=fixed;" vertex="1" parent="1">
          <mxGeometry x="-90" y="130" width="80" height="80" as="geometry" />
        </mxCell>
        <mxCell id="aM1qkCDXcj1m1-Q6C5af-8" value="" style="endArrow=classic;html=1;rounded=0;exitX=0;exitY=0.5;exitDx=0;exitDy=0;" edge="1" parent="1" source="aM1qkCDXcj1m1-Q6C5af-5" target="aM1qkCDXcj1m1-Q6C5af-7">
          <mxGeometry width="50" height="50" relative="1" as="geometry">
            <mxPoint x="130" y="130" as="sourcePoint" />
            <mxPoint x="450" y="350" as="targetPoint" />
          </mxGeometry>
        </mxCell>
        <mxCell id="aM1qkCDXcj1m1-Q6C5af-9" value="" style="endArrow=classic;html=1;rounded=0;exitX=0.5;exitY=0;exitDx=0;exitDy=0;entryX=0.25;entryY=1;entryDx=0;entryDy=0;" edge="1" parent="1" source="aM1qkCDXcj1m1-Q6C5af-7" target="aM1qkCDXcj1m1-Q6C5af-2">
          <mxGeometry width="50" height="50" relative="1" as="geometry">
            <mxPoint x="400" y="400" as="sourcePoint" />
            <mxPoint x="450" y="350" as="targetPoint" />
          </mxGeometry>
        </mxCell>
        <mxCell id="aM1qkCDXcj1m1-Q6C5af-10" value="" style="endArrow=classic;html=1;rounded=0;exitX=0.5;exitY=1;exitDx=0;exitDy=0;entryX=0.5;entryY=0;entryDx=0;entryDy=0;" edge="1" parent="1" source="aM1qkCDXcj1m1-Q6C5af-2" target="aM1qkCDXcj1m1-Q6C5af-12">
          <mxGeometry width="50" height="50" relative="1" as="geometry">
            <mxPoint x="400" y="200" as="sourcePoint" />
            <mxPoint x="390" y="-13.813250678031636" as="targetPoint" />
          </mxGeometry>
        </mxCell>
        <mxCell id="aM1qkCDXcj1m1-Q6C5af-12" value="Header Options" style="whiteSpace=wrap;html=1;aspect=fixed;" vertex="1" parent="1">
          <mxGeometry x="215" y="-180" width="80" height="80" as="geometry" />
        </mxCell>
        <mxCell id="aM1qkCDXcj1m1-Q6C5af-14" value="Website Information" style="whiteSpace=wrap;html=1;aspect=fixed;" vertex="1" parent="1">
          <mxGeometry x="310" y="-40" width="80" height="80" as="geometry" />
        </mxCell>
        <mxCell id="aM1qkCDXcj1m1-Q6C5af-15" value="" style="endArrow=classic;html=1;rounded=0;exitX=1;exitY=1;exitDx=0;exitDy=0;" edge="1" parent="1" source="aM1qkCDXcj1m1-Q6C5af-12" target="aM1qkCDXcj1m1-Q6C5af-14">
          <mxGeometry width="50" height="50" relative="1" as="geometry">
            <mxPoint x="400" y="200" as="sourcePoint" />
            <mxPoint x="450" y="150" as="targetPoint" />
          </mxGeometry>
        </mxCell>
        <mxCell id="aM1qkCDXcj1m1-Q6C5af-16" value="" style="endArrow=classic;html=1;rounded=0;entryX=1;entryY=1;entryDx=0;entryDy=0;" edge="1" parent="1" source="aM1qkCDXcj1m1-Q6C5af-14" target="aM1qkCDXcj1m1-Q6C5af-2">
          <mxGeometry width="50" height="50" relative="1" as="geometry">
            <mxPoint x="450" y="40" as="sourcePoint" />
            <mxPoint x="450" y="-10" as="targetPoint" />
          </mxGeometry>
        </mxCell>
        <mxCell id="aM1qkCDXcj1m1-Q6C5af-17" value="Pet Identification (Cat or Dog)" style="whiteSpace=wrap;html=1;aspect=fixed;" vertex="1" parent="1">
          <mxGeometry x="130" y="-40" width="80" height="80" as="geometry" />
        </mxCell>
        <mxCell id="aM1qkCDXcj1m1-Q6C5af-18" value="" style="endArrow=classic;html=1;rounded=0;exitX=0;exitY=1;exitDx=0;exitDy=0;entryX=0.75;entryY=0;entryDx=0;entryDy=0;" edge="1" parent="1" source="aM1qkCDXcj1m1-Q6C5af-12" target="aM1qkCDXcj1m1-Q6C5af-17">
          <mxGeometry width="50" height="50" relative="1" as="geometry">
            <mxPoint x="520" y="130" as="sourcePoint" />
            <mxPoint x="570" y="80" as="targetPoint" />
          </mxGeometry>
        </mxCell>
        <mxCell id="aM1qkCDXcj1m1-Q6C5af-19" value="" style="endArrow=classic;html=1;rounded=0;exitX=0;exitY=0;exitDx=0;exitDy=0;entryX=0.5;entryY=1;entryDx=0;entryDy=0;" edge="1" parent="1" source="aM1qkCDXcj1m1-Q6C5af-7" target="aM1qkCDXcj1m1-Q6C5af-21">
          <mxGeometry width="50" height="50" relative="1" as="geometry">
            <mxPoint x="-80" y="60" as="sourcePoint" />
            <mxPoint x="7.14285714285711" y="120" as="targetPoint" />
          </mxGeometry>
        </mxCell>
        <mxCell id="aM1qkCDXcj1m1-Q6C5af-21" value="Specifcic actionable steps to take about pets health" style="whiteSpace=wrap;html=1;aspect=fixed;" vertex="1" parent="1">
          <mxGeometry x="-70" y="-40" width="80" height="80" as="geometry" />
        </mxCell>
        <mxCell id="aM1qkCDXcj1m1-Q6C5af-22" value="" style="endArrow=classic;html=1;rounded=0;entryX=0.01;entryY=0.641;entryDx=0;entryDy=0;entryPerimeter=0;exitX=0.5;exitY=0;exitDx=0;exitDy=0;" edge="1" parent="1" target="aM1qkCDXcj1m1-Q6C5af-2" source="aM1qkCDXcj1m1-Q6C5af-21">
          <mxGeometry width="50" height="50" relative="1" as="geometry">
            <mxPoint x="-40" y="-70" as="sourcePoint" />
            <mxPoint x="10" y="-120" as="targetPoint" />
          </mxGeometry>
        </mxCell>
      </root>
    </mxGraphModel>
  </diagram>
</mxfile>
